<svg width="100" height="81" viewBox="0 0 100 81" xmlns="http://www.w3.org/2000/svg"><title>Group</title><g fill="#000" fill-rule="evenodd"><path d="M97.39 0H67.1c-9.907 0-14.75 2.333-17.104 4.75C47.646 2.334 42.802 0 32.896 0H2.605C1.162 0 0 1.184 0 2.634V74.35c0 1.448 1.162 2.63 2.605 2.63h30.29c6.393 0 12.778 2.734 12.84 3.07h.04c1.298.97 1.306.95 2.604.95h3.465c1.32 0 1.387.02 2.565-1.215.21-.362 6.815-2.807 12.688-2.807h30.289c1.446 0 2.61-1.18 2.61-2.628V2.633C100 1.183 98.836 0 97.39 0zM46.07 9.53v65.665s-5.557-3.07-13.055-3.07H5.275V4.86h27.74c14.514 0 13.056 4.67 13.056 4.67zM60 25h23v3H60v-3zm23 31H60v-3h23v3zm0-7H60v-3h23v3zm0-7H60v-3h23v3zm0-7H60v-3h23v3z"/><path d="M14 39h23v3H14zM24 25h13v3H24zM14 32h23v3H14zM14 46h23v3H14zM14 53h23v3H14z"/></g></svg>