<svg width="972" height="1248" viewBox="0 0 972 1248" xmlns="http://www.w3.org/2000/svg"><title>iPad</title><g fill="none" fill-rule="evenodd"><path d="M66.977 0h838.047C942.014 0 972 29.96 972 66.915V1180.21c0 36.953-29.987 66.91-66.976 66.91H66.976C29.988 1247.12 0 1217.163 0 1180.21V66.915C0 29.96 29.99 0 66.978 0c0 0-36.987 0 0 0zM102 1135V111h768v1024H102z" fill="#CACACA"/><path d="M486.444 1167.146c14.33 0 25.953 11.608 25.953 25.93 0 14.32-11.622 25.928-25.953 25.928-14.336 0-25.955-11.608-25.955-25.928 0-14.322 11.618-25.93 25.954-25.93" fill="#FFF"/><path d="M480.725 1184.363H493c1.426 0 2.582 1.155 2.582 2.58v12.264c0 1.423-1.156 2.58-2.583 2.58h-12.275c-1.427 0-2.585-1.157-2.585-2.58v-12.263c0-1.426 1.158-2.58 2.585-2.58" stroke="#CACACA" stroke-width="2.063" fill="#FFF"/></g></svg>