<svg width="371" height="693" viewBox="0 0 371 693" xmlns="http://www.w3.org/2000/svg"><title>iPhone 4</title><g fill="none" fill-rule="evenodd"><path d="M370.6 632.567c0 32.807-26.877 59.648-59.73 59.648H60.012c-32.852 0-59.73-26.84-59.73-59.648V60.06C.28 27.25 27.16.41 60.01.41H310.87c32.853 0 59.73 26.842 59.73 59.65v572.507zm-25.194-44.255H24.974v-480h320.432v480z" fill="#CACACA"/><path d="M219.208 637.78c0 18.625-15.12 33.72-33.767 33.72-18.648 0-33.766-15.095-33.766-33.72 0-18.622 15.118-33.72 33.767-33.72 18.65 0 33.768 15.098 33.768 33.72 0 0 0-18.622 0 0z" fill="#FFF"/><path d="M174.15 645.733v-15.907c0-1.85 1.495-3.348 3.344-3.348h15.893c1.845 0 3.345 1.498 3.345 3.348v15.907c0 1.85-1.5 3.35-3.345 3.35h-15.893c-1.85 0-3.345-1.5-3.345-3.35" stroke="#CACACA" stroke-width="2.063" fill="#FFF"/></g></svg>