<?xml version="1.0" encoding="UTF-8" standalone="no"?>
<svg width="972px" height="1248px" viewBox="0 0 972 1248" version="1.1" xmlns="http://www.w3.org/2000/svg" xmlns:xlink="http://www.w3.org/1999/xlink" xmlns:sketch="http://www.bohemiancoding.com/sketch/ns">
    <!-- Generator: Sketch 3.4 (15588) - http://www.bohemiancoding.com/sketch -->
    <title>iPad</title>
    <desc>Created with Sketch.</desc>
    <defs></defs>
    <g id="Page-1" stroke="none" stroke-width="1" fill="none" fill-rule="evenodd" sketch:type="MSPage">
        <g id="iPad" sketch:type="MSLayerGroup" transform="translate(486.000000, 624.000000) rotate(-270.000000) translate(-486.000000, -624.000000) translate(-138.000000, 138.000000)">
            <path d="M2.27373675e-13,905.023103 L2.27373675e-13,66.975786 C2.27373675e-13,29.9873606 29.9594163,0 66.9154656,0 L1180.20973,0 C1217.16322,0 1247.12007,29.9873606 1247.12007,66.975786 L1247.12007,905.024384 C1247.12007,942.011528 1217.16322,971.998888 1180.20973,971.998888 L66.9154656,971.998888 C29.9594163,971.998888 2.27373675e-13,942.010247 2.27373675e-13,905.023103 C2.27373675e-13,905.023103 2.27373675e-13,942.010247 2.27373675e-13,905.023103 L2.27373675e-13,905.023103 L2.27373675e-13,905.023103 Z M1135,870 L111,870 L111,102 L1135,102 L1135,102 L1135,870 L1135,870 Z" id="Frame" fill="#CACACA" sketch:type="MSShapeGroup"></path>
            <path d="M1167.1456,485.556327 C1167.1456,471.224961 1178.75374,459.603066 1193.07603,459.603066 C1207.39577,459.603066 1219.0039,471.224961 1219.0039,485.556327 C1219.0039,499.891535 1207.39577,511.510869 1193.07603,511.510869 C1178.75374,511.510869 1167.1456,499.891535 1167.1456,485.556327" id="Button" fill="#FFFFFF" sketch:type="MSShapeGroup"></path>
            <path d="M1184.36284,491.274937 L1184.36284,479.001249 C1184.36284,477.573915 1185.51761,476.418407 1186.94404,476.418407 L1199.207,476.418407 C1200.63047,476.418407 1201.78821,477.573915 1201.78821,479.001249 L1201.78821,491.274937 C1201.78821,492.702271 1200.63047,493.859756 1199.207,493.859756 L1186.94404,493.859756 C1185.51761,493.859756 1184.36284,492.702271 1184.36284,491.274937" id="Button-Box" stroke="#CACACA" stroke-width="2.06330658" fill="#FFFFFF" sketch:type="MSShapeGroup"></path>
        </g>
    </g>
</svg>