<?xml version="1.0" encoding="UTF-8" standalone="no"?>
<svg width="371px" height="693px" viewBox="0 0 371 693" version="1.1" xmlns="http://www.w3.org/2000/svg" xmlns:xlink="http://www.w3.org/1999/xlink" xmlns:sketch="http://www.bohemiancoding.com/sketch/ns">
    <!-- Generator: Sketch 3.4 (15588) - http://www.bohemiancoding.com/sketch -->
    <title>iPhone 4</title>
    <desc>Created with Sketch.</desc>
    <defs></defs>
    <g id="Page-1" stroke="none" stroke-width="1" fill="none" fill-rule="evenodd" sketch:type="MSPage">
        <g id="iPhone-4" sketch:type="MSLayerGroup">
            <path d="M370.59956,632.566738 C370.59956,665.374238 343.722838,692.214738 310.869562,692.214738 L60.0119787,692.214738 C27.1597034,692.214738 0.281479352,665.374238 0.281479352,632.566738 L0.281479352,60.0587375 C0.281479352,27.2517375 27.1597034,0.4102375 60.0119787,0.4102375 L310.869562,0.4102375 C343.722838,0.4102375 370.59956,27.2517375 370.59956,60.0587375 L370.59956,632.566738 L370.59956,632.566738 L370.59956,632.566738 L370.59956,632.566738 Z M345.406257,588.312188 L24.9744082,588.312188 L24.9744082,108.312188 L345.406257,108.312188 L345.406257,108.312188 L345.406257,588.312188 L345.406257,588.312188 Z" id="Frame" fill="#CACACA" sketch:type="MSShapeGroup"></path>
            <path d="M219.207528,637.779638 C219.207528,656.404638 204.089153,671.501138 185.44052,671.501138 C166.792388,671.501138 151.673512,656.404638 151.673512,637.779638 C151.673512,619.158138 166.792388,604.060138 185.44052,604.060138 C204.089153,604.060138 219.207528,619.158138 219.207528,637.779638 C219.207528,637.779638 219.207528,619.158138 219.207528,637.779638 L219.207528,637.779638 L219.207528,637.779638 Z" id="Button" fill="#FFFFFF" sketch:type="MSShapeGroup"></path>
            <path d="M174.148607,645.732899 L174.148607,629.825814 C174.148607,627.975944 175.645234,626.47837 177.493932,626.47837 L193.387107,626.47837 C195.231965,626.47837 196.732433,627.975944 196.732433,629.825814 L196.732433,645.732899 C196.732433,647.582769 195.231965,649.082905 193.387107,649.082905 L177.493932,649.082905 C175.645234,649.082905 174.148607,647.582769 174.148607,645.732899" id="Button-Box" stroke="#CACACA" stroke-width="2.06330658" fill="#FFFFFF" sketch:type="MSShapeGroup"></path>
        </g>
    </g>
</svg>